<?xml version="1.0" encoding="UTF-8" standalone="no"?>
<!-- Created with Inkscape (http://www.inkscape.org/) -->

<svg
   width="1080"
   height="1080"
   viewBox="0 0 1080 1080"
   version="1.1"
   id="svg1"
   inkscape:version="1.4.2 (ebf0e940, 2025-05-08)"
   sodipodi:docname="logo_path.svg"
   inkscape:export-filename="logo.png"
   inkscape:export-xdpi="96"
   inkscape:export-ydpi="96"
   xmlns:inkscape="http://www.inkscape.org/namespaces/inkscape"
   xmlns:sodipodi="http://sodipodi.sourceforge.net/DTD/sodipodi-0.dtd"
   xmlns="http://www.w3.org/2000/svg"
   xmlns:svg="http://www.w3.org/2000/svg">
  <sodipodi:namedview
     id="namedview1"
     pagecolor="#ffffff"
     bordercolor="#000000"
     borderopacity="0.25"
     inkscape:showpageshadow="2"
     inkscape:pageopacity="0.0"
     inkscape:pagecheckerboard="0"
     inkscape:deskcolor="#d1d1d1"
     inkscape:document-units="px"
     inkscape:zoom="0.44922624"
     inkscape:cx="442.98392"
     inkscape:cy="469.69652"
     inkscape:window-width="1728"
     inkscape:window-height="1051"
     inkscape:window-x="0"
     inkscape:window-y="38"
     inkscape:window-maximized="1"
     inkscape:current-layer="layer1"
     showgrid="false" />
  <defs
     id="defs1">
    <radialGradient
       id="goldGradient"
       cx="50%"
       cy="50%"
       r="50%"
       fx="50%"
       fy="50%">
      <stop
         offset="0%"
         style="stop-color:#fff8dc; stop-opacity:1"
         id="stop1" />
      <stop
         offset="40%"
         style="stop-color:#ffe066; stop-opacity:1"
         id="stop2" />
      <stop
         offset="70%"
         style="stop-color:#ffd700; stop-opacity:1"
         id="stop3" />
      <stop
         offset="100%"
         style="stop-color:#b8860b; stop-opacity:1"
         id="stop4" />
    </radialGradient>
  </defs>
  <g
     inkscape:label="Background"
     inkscape:groupmode="layer"
     id="layer1">
    <circle
       style="fill:#b61c2b;stroke:#e6ac7c;stroke-width:30;stroke-dasharray:none;stroke-opacity:1;fill-opacity:1"
       id="path3"
       cx="540"
       cy="540"
       inkscape:label="Circle"
       r="490" />
    <path
       style="font-size:666.667px;font-family:'LXGW WenKai Mono TC';-inkscape-font-specification:'LXGW WenKai Mono TC';fill:#e6ac7c;stroke-width:0"
       d="m 608.00003,775.66714 -4,-54.6667 157.33341,-6.66667 -7.33334,58.00003 z m -36.00001,40.00001 q 0,15.33335 23.33334,21.33335 l 8,2 q 7.33334,0 7.33334,-10.00001 v -2.66666 l -1.33333,-16.66668 179.33342,-3.33333 q 8.66667,0 12.66667,-1.33334 4,-0.66666 4,-7.33333 0,-6.00001 -16.66667,-26.00002 l 10,-60.66669 q 0.66667,-3.33334 2,-6.00001 2,-3.33333 2,-5.33333 0,-2 -1.33333,-6.66667 -4.66667,-14.00001 -30.66668,-14.00001 l -168.00008,8.00001 q -32.00002,-12.66668 -40.00002,-12.66668 -8.00001,0 -8.00001,4.66667 0,1.33334 5.33334,11.33334 5.33334,9.33334 7.33334,32.66668 l 5.33333,50.66669 q 0.66667,10.66668 0.66667,18.66668 z M 722.66676,616.33372 q 40.66668,-33.33335 40.66668,-42.00002 0,-9.33333 -18.00001,-22.00001 -7.33333,-5.33333 -11.33334,-5.33333 -3.33333,0 -4.66666,6.66667 -2.66667,20.66667 -48.66669,65.33336 l -20.66668,1.33334 q 7.33334,-9.33334 7.33334,-14.00001 0,-12.00001 -24.66668,-30.66668 -24.00001,-18.66668 -30.00002,-18.66668 -6,0 -12,8.00001 -5.33334,7.33333 -5.33334,12.66667 0,4.66667 5.33334,8.66667 22.00001,16.66667 38.00001,34.66668 -76.6667,4.66667 -84.6667,4.66667 -8.00001,0 -16.00001,-2 -5.33334,-8.66667 -13.33334,-14.66667 -7.33334,-6.66667 -10.66667,-6.66667 -3.33334,0 -9.33334,2.66667 -5.33334,2.66666 -19.33334,3.33333 l -46.66669,2.66667 q 34.66668,-29.33335 34.66668,-38.66669 0,-9.33334 -12.00001,-19.33334 -11.33333,-10.00001 -15.33334,-10.00001 -4,0 -5.33333,9.33334 -1.33334,9.33334 -14.66668,28.66668 -13.33334,19.33335 -28.00001,32.66669 l -21.33334,1.33333 q 5.33333,-6 5.33333,-12.66667 0,-7.33334 -17.33334,-25.33335 -17.33334,-18.00001 -21.33334,-21.33334 -4,-4 -8.66667,-4 -4.00001,0 -10.00001,6.66667 -6,6 -6,11.33333 0,4.66667 12.66667,18.66668 12.66667,14.00001 21.33335,28.00001 l -78.00004,4.66667 q -15.33334,0 -24.00001,-2 -8.00001,-2.66667 -10.66668,-2.66667 -2.66666,0 -2.66666,4.66667 0,13.33334 14,28.66668 4.66667,4.66667 18.66668,4.66667 h 12 L 527.33333,641.0004 q 4,6.00001 9.33334,11.33334 5.33333,4.66667 20,4.66667 h 12.66668 l 286.00014,-14.66667 q 12,-1.33334 12,-7.33334 0,-6.66667 -10.66667,-18.00001 -10.66667,-11.33334 -15.33334,-11.33334 -4,0 -10,2.66667 -6.00001,2.66667 -20.00001,3.33334 z m -122.00006,-95.33338 -4.66667,-44.66668 157.33341,-8.66668 -6.00001,44.66669 z m 161.33341,-87.33337 -168.00008,11.33334 q -28.66668,-11.33334 -36.66669,-11.33334 -8,0 -8,4 0,2 1.33333,4 13.33334,20.66668 17.33334,89.33338 l -0.66666,13.33334 q 0,16.00001 23.33334,17.33334 12.00001,0.66667 12.66667,-10 181.33343,-9.33334 187.33343,-10.00001 6.66667,-1.33333 6.66667,-6.66667 0,-6 -16.66668,-26.00001 l 10.00001,-43.33336 q 4,-10 4,-13.33334 0,-18.66667 -32.66668,-18.66667 z m -200.0001,-92.66671 89.33338,-6.00001 v 38.66669 l -61.33337,4 q -18.66667,0 -25.33334,-2 -6,-2.66667 -8.66667,-2.66667 -2,0 -2,2 0,2 3.33333,10.66667 10.66667,25.33335 32.66668,25.33335 l 180.00009,-11.33334 q 16.00001,-1.33333 16.00001,-8.66667 0,-10 -13.33334,-18.66668 -12.66667,-9.33333 -17.33334,-9.33333 -4,0 -10.66667,2.66667 -6.66667,2 -16.66668,3.33333 l -41.33335,2.66667 0.66667,-39.33335 122.66672,-8.00001 q 12.00001,-1.33333 12.00001,-7.33334 0,-10.66667 -19.33335,-24.66667 -7.33333,-4.66667 -10.66667,-4.66667 -2.66666,0 -10,2.66666 -6.66667,2.00001 -19.33334,3.33334 l -75.33337,5.33334 0.66666,-40.00002 q 0,-17.33335 -26.66668,-22.66668 -10,-2 -15.33334,-2 -4.66667,0 -4.66667,4 0,4 4.66667,12.00001 5.33334,7.33333 5.33334,24.00001 v 27.33334 l -100.00005,6.66667 q -16.66668,0 -24.00001,-2 -6.66667,-2.66667 -10.00001,-2.66667 -2.66667,0 -2.66667,2.66667 0,2.66667 3.33334,11.33334 3.33333,8.66667 10.66667,16.66668 8.00001,7.33333 20.66668,7.33333 z m -226.00011,434.66688 -3.33333,-54.00003 147.3334,-6.66667 -7.33334,57.33336 z m -35.33335,41.33335 q 0,15.33334 23.33334,21.33334 l 8.00001,2 q 7.33334,0 7.33334,-10 v -2.66667 l -1.33334,-16.66667 169.33342,-3.33334 q 6.66667,-0.66667 11.33334,-1.33333 5.33333,-0.66667 5.33333,-7.33334 0,-6 -16.66667,-27.33335 l 10,-61.33336 q 0.66667,-3.33333 2.66667,-6 2,-3.33334 2,-5.33334 0,-2 -2,-6.66667 -4.66667,-14.00001 -30.66668,-14.00001 l -158.00008,8.00001 q -31.33335,-13.33334 -39.33335,-13.33334 -8.00001,0 -8.00001,4 0,4 4.66667,14.66667 5.33334,10.66668 7.33334,30.66669 l 5.33334,52.66669 q 1.33333,10.66667 1.33333,18.66667 z m 30.00001,-304.00015 -4.66666,-44.66669 145.3334,-8 -6.66667,44.66669 z m 182.00009,-66.00003 q 0,-7.33334 -8,-14.00001 -8,-6.66667 -26.00001,-6.66667 L 323.99989,437.0003 q -28.66668,-11.33334 -37.33335,-11.33334 -8.66667,0 -8.66667,3.33334 0,2.66667 3.33334,7.33334 3.33333,4.66667 6,16 3.33333,11.33334 10,70.66671 l -0.66666,11.33333 q 0,20.66668 27.33334,20.66668 9.33334,0 9.33334,-11.33334 l 164.66675,-8.66667 q 6.66667,-0.66667 10.66667,-1.33333 4.66667,-1.33334 4.66667,-7.33334 0,-6.66667 -15.33334,-23.33334 z M 323.33323,408.33362 q 3.33333,0 6.66667,-0.66666 l 148.66674,-11.33334 q 16,-1.33334 16,-8.00001 0,-11.33334 -20.00001,-24.00001 -7.33333,-4.66667 -10.66667,-4.66667 -3.33333,0 -10,2.66667 -6,2 -15.33334,3.33334 l -34.00002,2.66666 0.66667,-38.66668 96.00004,-7.33334 q 12.00001,-2 12.00001,-7.33334 0,-10.66667 -18.66668,-24.66668 -6.66667,-4.66666 -10,-4.66666 -2.66667,0 -9.33334,2.66666 -6.66667,2 -18.66667,3.33334 l -50.6667,4 0.66667,-39.33335 q 0,-10.00001 -10.66667,-16.66668 -10.66667,-6.66667 -21.33334,-6.66667 -10.66668,0 -10.66668,5.33334 0,1.33333 2.66667,7.33334 2.66667,5.33333 3.33334,12.66667 1.33333,6.66667 1.33333,40.00002 -86.66671,6.66667 -94.66671,6.66667 -7.33334,0 -14.66668,-2 -6.66667,-2.66667 -9.33333,-2.66667 -2.66667,0 -2.66667,2.66667 0,2.66667 3.33333,11.33334 8.66667,24.00001 29.33335,24.00001 l 88.66671,-6 v 38.66668 l -53.33336,4 q -17.33334,0 -23.33334,-2 -6.00001,-2.66667 -8.66667,-2.66667 -2.66667,0 -2.66667,2 0,2.00001 4,10.66668 10,25.33334 30.66668,25.33334 z"
       id="text1"
       inkscape:label="Text"
       aria-label="å›" />
  </g>
</svg>
